<svg id="Ebene_2" data-name="Ebene 2" xmlns="http://www.w3.org/2000/svg" viewBox="0 0 653 455"><defs><style>.cls-1{fill:#fff;}</style></defs><title>Zeichenfläche 1_ig</title><path d="M443.35,192.54c-3.08-.49-6.14-.9-9.17-1.49-3.53-.69-6.73-2-8.42-5.53-1.48-3.1-1.27-5.27,2.92-5.11a7.87,7.87,0,0,0,5.12-1.69c2.23-1.67,2.78-4.17,2.5-6.71s-2.57-2.94-4.45-3.42c-5.7-1.46-9.95-4.54-12.06-10.17-1.65-4.4-.29-6.31,4.39-6.3.33,0,.66,0,1,.06,9,.48,9.58.34,7.34-8.6-2.54-10.15.19-19.42,3.06-28.77a11.43,11.43,0,0,1,7.47-7.53c21.78-7.81,34,6.93,36.1,24.21a36,36,0,0,1-2.23,18.12c-1.79,4.44-.25,6,4.19,5.06,2.85-.63,5.4-.87,6.34,2.7s-.27,6.29-3.91,7.43c-2.21.7-4.55,1-6.82,1.48-1.55.36-2.85,1.08-2.81,3s.31,4,2,5.44,3.08.47,4.51-.51c5.28-3.61,10.9-6.38,17.37-7.13a8.89,8.89,0,0,1,8.09,2.91c3.87,4.19,3.19,8.72-2.11,10.69-6.69,2.49-13.47,4.88-20.69,5.5a18.49,18.49,0,0,0-3.9.69c-2.16.67-4.21,1.67-3.58,4.51s2.71,4.06,5.25,3.37c7.16-2,14.22-.2,21.34,0,4.05.11,6.57,1.66,6.63,5.7s-2.12,6.64-6.39,6.75c-6.31.16-12.58,1.59-18.94.47-4.12-.73-4.34,2.54-4.26,5.09.2,6.65.8,13.28,1.26,19.92,1.4,20.24,4.46,40.35,4.75,60.68,0,1.63-.33,4,1.26,4.54,1.94.66,3.1-1.64,4.12-3a30.65,30.65,0,0,0,4.41-8.92c.73-2.26.79-5.43,4.22-5.32,3.15.11,3.64,2.9,4.17,5.34.43,0,.84.09,1-.07,3.1-2.4,6.9-4.4,9.77-.93s-.9,6.34-2.9,9c-2.87,3.85-7.45,5-11.61,6.44-3.53,1.23-5,3.39-5.72,6.73A88.36,88.36,0,0,0,492.54,328c.13,4.21,2,5.53,5.69,3.4,11.68-6.69,24.58-7.79,37.61-8.52,7.39-.41,14.57,1.11,21.85,1.73a3.24,3.24,0,0,1,.49.11c9.54,2.33,11.38,6.69,6,14.84,4.26,1.05,8.29-.44,12.33-.73,2.34-.16,2-2.75,2.14-4.48a144.18,144.18,0,0,0-.87-24.43c-1.37-12.23-2.45-24.5-3.42-36.78-.29-3.62-1-4.82-4.63-2.76a99.43,99.43,0,0,1-10,4.58c-1.8.78-3.88,2.09-5.38-.17-1.62-2.44,1.21-2.89,2.28-4.13a11.51,11.51,0,0,0,.89-1.52c-4.65,1.27-8.92,2.51-13.24,3.58-2.1.52-4.55,1.08-5.52-1.7-.82-2.36.9-3.62,2.73-4.69,1.1-.64,2.42-1.08,3.19-2.91-5.06,1.62-9.82,3.07-14.85,2.64-2-.17-4.47-.32-4.72-2.74-.27-2.59,2-3.74,4.24-4,3.11-.41,5.56-2,8.06-3.89-5.86.94-11.32,3.73-17.35,3.87-1.47,0-2.91.52-4.44.16-1.83-.43-3-1.36-3.2-3.3s.9-2.7,2.31-3.44a46.82,46.82,0,0,1,15.14-4.89c-6.56,1.12-13-.05-19.38-.64-2.3-.21-4.65-.57-5.07-3.11-.49-3,2.42-3.13,4.31-3.84a16.36,16.36,0,0,1,8.84-.37,18.51,18.51,0,0,0,8.83-.55c-3.24-2.61-7.15-2-10.26-3.59-2.62-1.33-6.82-2.18-5.93-5.56,1-3.82,5.1-2.39,8.21-2,5.59.7,10.44,3.89,16.37,5.13-.84-4-3.23-6.25-5.74-8.4a52.82,52.82,0,0,1-4.1-3.63,3.19,3.19,0,0,1-.47-4.14c1.08-1.68,2.49-1.24,3.92-.49,8.3,4.37,15.24,9.93,17.29,20.33,2.76-4.81,2.16-8.94-.53-12.92a29.66,29.66,0,0,0-2.68-3,4.28,4.28,0,0,1-.27-5.9c1.77-2.5,3.72-1,5.18.11,5.21,3.93,8.86,8.94,9.57,15.66.15,1.46.15,2.93.28,5.7,2.35-5.53,2.46-9.8.39-14.06a22.64,22.64,0,0,0-1.92-2.92c-1.52-2.19-3.72-4.56-2-7.18s4.24.33,7.09,0c-1.49-3.72-2.79-7.36-4.37-10.87a95.91,95.91,0,0,1-8.81-38.64c-.06-6-4.14-10.41-8.16-14.4-8.34-8.28-14-18.55-20.8-27.92-2.23-3-.28-5.63,2.34-7.65,1.4-1.08,3.6-2,3-4.1-.52-1.83-2.57-2.55-4.4-2.9-11.31-2.17-19.64-8.56-25.89-18-1.59-2.4-3.32-4.86-3-7.76.44-4.38,3.61-5.39,7.57-5.34,5.67.07,6.31-1.08,3.44-6C499,62.47,495.18,56.22,491.39,50a10.49,10.49,0,0,1-1.85-5.6c0-3.57.12-7.43,3.41-9.41s6.71-.11,9.61,2.08c.8.6,1.66,1.12,2.43,1.75,2.93,2.4,4.36,1.42,4.93-2,1.17-7,1.2-14.31,4.68-20.83,1.33-2.49,2.14-5.51,5.69-5.53a9.48,9.48,0,0,1,8.58,5.06,26.15,26.15,0,0,1,3.87,12.28c.46,12.6,2.19,25.27-1.37,37.75a30.3,30.3,0,0,0-1.09,10.4,3.11,3.11,0,0,0,.83,2.18c1.1.69,1.82-.47,2.36-1.19A28,28,0,0,0,535.79,73a5.17,5.17,0,0,1,5.2-3.14c2.44.14,3.27,2,4.15,3.82a11.28,11.28,0,0,1,.75,7.8c-1.4,6-2.74,12-4.16,18-1.14,4.8-.73,5.24,4,4.58,4-.55,8.1-1.45,9.66,4.16.54,1.94,2.27.35,3.42.18,3.85-.56,7.77-1.63,11.25,2.37-4.11,1.33-7.5,3-8.06,7.47-.15,1.18-.43,2.51.66,3.23s2.22.11,3.32-.39c3.11-1.4,3.56-4.69,5.08-7.18,3.26-5.3,8-8.08,13.11-7.16a14.71,14.71,0,0,1,4.11,1.65,3.7,3.7,0,0,1,2.26,3.1c0,2-1.83,1.52-2.93,2l-.46.2c-2.09,1-4.57,1.63-4.45,4.65a2.11,2.11,0,0,0,1.62,2.26,5.87,5.87,0,0,0,6.21-3.22c4-7.12,10.17-9,17.84-7.59,3.19.6,6.17,2,6.45,5.28.3,3.52-3.25,3.52-5.77,4.12a3.86,3.86,0,0,0-.49.08c-1.89.73-5.44.3-5,3,.57,3.14,3.5,1,5.35.62,5.36-1,10.32-.58,14.36,3.49,1.76,1.77,2.58,4.14,1.35,6.41-1.31,2.43-3.76,1.54-5.84,1.08-2.92-.64-5.84-1.3-8.71-2.14-1.88-.55-3.94-1.11-4.77,1-1.06,2.72.7,4.87,2.81,6.33,1.69,1.17,3.85,1.77,5.18-.61,1-1.7,1.72-3.47,4.06-2.37,2.82,1.33,4,3.87,4.43,6.81.28,2-.34,3.93-2.33,4.48-4.45,1.23-9,2.57-13.67,1-4.09-1.34-7.09-3.54-7.55-8.25-.12-1.22-.09-2.75-1.53-3.49-1.92,3.11-1.16,8.6,2,12.42,2.56,3.12,5.8,4.9,10,3.78a29.59,29.59,0,0,1,3.36-.89,3.06,3.06,0,0,1,3.5,2.19c.59,1.62-.11,2.91-1.43,3.9-7.85,5.9-22.82,2.8-27.21-5.7-1.73-3.35-1.9-7-1.51-10.71.15-1.42.54-3.47-1.45-3.64-1.71-.15-1.29,2-1.78,3.09a25.51,25.51,0,0,0-1.76,13.7c.57,4.26,2.5,7.2,7.4,7,1.42,0,3.47-.37,3.67,1.58.19,1.74-1.73,2.31-3.14,2.7-5.08,1.4-10.42,3.89-15.12-.5a18.48,18.48,0,0,1-5.83-18.13c.32-1.56,1.13-3.06.39-5.56-2.15,3.33-3.64,5.55-2.06,9.36,1.66,4,.2,8.44-2.07,11.93-3.89,6-4,12.13-2.12,18.58,2.64,8.9,6.23,17.56,6.1,27.12a12,12,0,0,0,1.91,5.64c7,12.4,8.28,26.15,9.71,39.92A90.15,90.15,0,0,0,582,269.22c1.44,5.2,2.63,10.39,2.11,15.74-.88,9.09,1.65,17.85,2.34,26.78.72,9.31.47,18.61.62,27.91,0,2.43.61,3.86,2.7,5.29,5.06,3.47,10.19,7.11,9.32,14.52-.05.46.58,1.13,1.05,1.49,10.07,7.83,10.9,19,10.28,30.28a131.37,131.37,0,0,1-4.85,29c-.73,2.54-1.61,3.74-4.48,4.25-13.64,2.43-27.17,1.36-40.73-.4-3-.39-4.13-2.38-5.15-4.78-3.47-8.22-3-16.92-3.2-25.55-.21-8.29,3.93-15.69,4.88-23.56a29.76,29.76,0,0,0-3.9-18.5c-.92-1.56-2.3-2.36-4-.55-2,2.13-4.24,1.61-6.25,0-10.61-8.73-22.78-11-36-8.79-3.28.55-6.58,1.07-9.82,1.83-5.47,1.29-7.92,5.63-5.3,10.49,5.17,9.61,5.77,19.95,5.9,30.46,0,1.13,0,3,.57,3.27,6.22,2.52,3.92,7.65,3.87,12,0,2.33-.32,4.65-.53,7-.25,2.78.24,5,2.68,7,3.75,3.09,2.94,8.12-1.58,10-8.15,3.37-16.41,1.37-24.44-.68-3.16-.81-3.58-6.2-.63-8.89,2.1-1.92,2.52-3.92,2.84-6.48,1-7.71,1.27-15.73,7.94-21.37,1.13-1,.86-2.46.85-3.78-.11-10-1.91-19.88-3.79-29.68-1.1-5.72-4.41-6.92-10-5-10.78,3.79-18.17,11.37-24.07,20.76A39.09,39.09,0,0,1,438.7,382c-3.94,2.44-6.18,1.66-6.49-2.78-.41-5.83-2.77-3.3-5-1.44-7.7,6.44-16.35,10.1-26.58,9.45a21.12,21.12,0,0,1-7.3-1.52c-1.41-.62-3.74-.52-3.75-2.68,0-2,1.72-3.16,3.38-4s3.65-1.62,5.5-2.39c3.31-1.39,5.66-3.78,7.82-7-3-1.16-5.6-.53-8.17-.44a34.23,34.23,0,0,1-11.36-1.34c-2.53-.78-5.4-2-5.64-5s2.28-5.51,4.86-6.32c7.21-2.26,14.33-5.14,22.35-2.92,3.68,1,7.81.29,11.76-1.54-2.13-2.48-5.09-2.33-7.33-3.64-1-.57-2.44-.69-2.54-2.08-.12-1.58,1.28-2.19,2.41-2.88,3.63-2.19,7.58-1.7,11.15-.44,6.51,2.28,10.68.63,14.84-5.06,6.22-8.5,15.86-8.76,25.41-7.8,3.47.35,6.88,1.27,10.34,1.58,4.3.38,6.89-1.78,6.43-6.17-1.39-13.12-5-18.84-18.16-18.65-11.55.16-20.91-4.5-28.12-13.58-2.1-2.64-2-4.33,1.31-5.59,3.18-1.19,3.77-3,1.06-5.46-2-1.83-3.14-4.29-4.2-6.73-1-2.21-.63-4.45,1.29-5.85s3.71,0,5.38,1.19c4.47,3.29,6.18,8.6,9.4,12.81,4.54,5.94,10.46,8.92,17.4,10.84,4.28,1.18,6-.62,6.55-4.35a72.47,72.47,0,0,0,.51-16.38c-.91-10.95-2.28-21.83-4-32.7-.91-5.69-.27-11.62-.43-17.44-.25-9.12-8-19.6-15.06-20.28-2.48-.24-5,0-7.49-.11a30.44,30.44,0,0,1-5.44-.5c-1.76-.39-3.73-.91-4-3.2-.21-2,1.51-2.76,2.87-3.69S443.05,195,443.35,192.54ZM414.08,345.71c2.68,1.18,4.17,1.85,5.67,2.5,1.69.73,3.6,1.35,3.33,3.74s-2.24,2.77-4,3.15a29.26,29.26,0,0,1-12.37.45c-7.22-1.52-13.78,1.1-20.26,3.77a3.21,3.21,0,0,0-2.22,3.06c.1,1.59,1.45,2.09,2.74,2.52,3.05,1,6.23,1,9.39,1.13,3.48.11,7-.4,10.44.51,3.25.85,3.86,2.55,1.77,4.95-2.49,2.86-4.84,5.89-8.65,7.34-2.05.78-4.53,1.18-5.83,3.47,1.54,1.84,3.68,1.63,5.56,1.82,10.08,1.05,18.59-2.51,26.08-9,7-6.09,7.12-6.08,9.21,2.35.63,2.56,1.51,2.57,3.31,1.32a37.65,37.65,0,0,0,10-10.34c4.69-7.09,9.72-13.78,17-18.63,9.15-6.07,15.08-6.67,22.34-1.18,3.65-6.45,3.64-6.49,11-8,3.26-.66,6.54-1.3,9.84-1.64,12.49-1.29,24.17.93,34.43,8.56,1.93,1.44,3.45,2.54,5.45.1,1.48-1.8,3.23-1.19,4.81.16a15.9,15.9,0,0,1,5.27,9.92c.28,1.63.56,4.59,1.08,4.65,4.32.44,2.88,2.81,2.3,5.25a3.9,3.9,0,0,0,1,3.15c1.29,1.22,2-.56,2.76-1.18,4.32-3.49,6.56-2.95,7.82,2.47,1.23,5.24,1.95,10.61,2.94,16.24,4.09-8.39,6.5-9.11,14.53-4.52,2.66-4.88-.9-7.77-3.49-10.82-1.92-2.26-4.7-3.77-5.94-6.66-.82-1.91-1.65-4.41.68-5.22,3-1,5.36-4.73,9.4-2.39a3.59,3.59,0,0,0,4.47-1.33c1.14-1.57-.2-2.86-.94-4-3.36-5.37-8.74-7.87-14.37-10.12s-11.22-.22-16.79-1c-1.89-.26-4.36.35-5-2.25-.58-2.43,1.78-2.78,3.23-3.77,3.28-2.24,3.32-4.92,0-7a13.81,13.81,0,0,0-5.05-2,133.55,133.55,0,0,0-37.27-.29c-7.64.92-14,5.09-21.08,7.39-5.89,1.91-8.12.74-8.67-5.45a78.26,78.26,0,0,1,2-25.28c.64-2.67,2.2-3.94,4.82-5,4.95-2.05,10.77-2.85,14-8,.86-1.38,2.27-2.94.88-4.49s-2.77-.1-4,.7c-1.8,1.2-3.52,2.75-5.82,2.59-3.56-.26-.83-4.08-3.14-5.67-.55,1.53-1,2.86-1.5,4.2A27.48,27.48,0,0,1,490,299.49c-3.6,3.2-6,2.3-6.82-2.42a35.57,35.57,0,0,1-.52-7c.45-15.87-3.13-31.42-3.56-47.23-.27-10-1.81-19.88-2.24-29.85-.3-6.89,2.12-8.73,8.74-7.75,5.53.81,11-.38,16.44-.59,2.6-.1,4.56-1.67,4.49-4.41s-2.31-3.22-4.65-3.41c-6.79-.55-13.51-1.49-20.4-.4-5.82.92-8.62-1.82-8.22-7,.37-4.79,4.3-5.21,7.66-5.52,7.39-.67,14.33-2.89,21.27-5.21,1.7-.57,3.45-1.4,3.71-3.62.28-2.38-1.33-3.59-2.92-4.85-2.27-1.8-4.8-1.26-7.18-.64a46.9,46.9,0,0,0-13.7,5.91c-2.29,1.47-4.86,2.72-7.42.82-2.83-2.11-3.3-5.31-2.86-8.58s3.18-3.44,5.61-4c1.3-.29,2.59-.62,3.89-.89,2.43-.5,4.17-1.72,3.53-4.43-.72-3.05-2.91-1.76-4.82-1.32-4.16,1-6-.42-5.94-4.77a16.53,16.53,0,0,1,1-5.34c2.56-7.19,2.31-14.43.36-21.63-4-14.63-15.95-21-30.5-16.44a10.88,10.88,0,0,0-7.48,7.41c-3.11,9.4-4.71,18.81-2.45,28.86,2.1,9.33,1.54,9.45-8.24,9-.67,0-1.33,0-2,0-3.21-.08-3.72,1.43-2.51,4.11,2.19,4.87,6.31,7.22,11.2,8.31s5.77,4.24,4.79,8.61c-.87,3.9-3.42,5.88-7.08,6.89-1.23.34-3.47-.66-3.44,1.64,0,1.72,1.51,3,3.07,3.68a29.89,29.89,0,0,0,11.66,2.37c1.49,0,3.18-.11,3.65,1.82.4,1.64-.57,2.84-1.71,3.91-1.49,1.41-4,1.57-5.11,3.76,4,2.78,8.34,1.06,12.36,1.56s8.62,0,11.07,3.5c3.84,5.52,8.37,11,8.39,18.29.06,16.69,3.16,33.09,4.63,49.64.61,6.91,1.35,14-1,20.81-1.18,3.39-2.91,5.22-7.47,4.25-11.63-2.49-19.72-9-25.21-19.27-1.38-2.6-3.45-7.29-6.26-5.31-2.56,1.8,1,5.52,3.05,7.76,2.91,3.14,3.75,6.06-.55,8.47-2.41,1.35-2.07,2.73-.61,4.27a44.08,44.08,0,0,0,4.79,4.33c6.92,5.41,15.1,6.13,23.52,6.79,12.15.95,19.71,11.9,17.41,24-.68,3.61-2.43,5.59-6.31,5.74-4.38.17-8.58-.77-12.87-1.31-9.75-1.24-18.92-.55-25.23,8.78-3.52,5.21-6.78,5.94-13.53,4.1C422.13,344.84,418.79,344.15,414.08,345.71ZM568.41,218.56c-1.7-4.12-4.13-8.13-4.07-12.58.15-12.26-6.08-23.06-7.52-34.94-1.08-8.9-3.37-17.93,5.07-24.9,1-.78,1.36-2.24,2-3.42,1.12-2.17,2.49-4.36,5.28-3.44s2,3.51,1.52,5.56a24.33,24.33,0,0,0-.59,10.86c1.75,8.63,7.86,12,15.34,8.09-5.42-1.22-7-5.07-7.49-9.9-.55-5.82,1.11-11.17,2.94-16.55a2.9,2.9,0,0,1,3.45-2.11,3.51,3.51,0,0,1,3.5,3,38.36,38.36,0,0,1-.07,5.46c-.09,6.35,3.13,12.28,7.65,14.09,4.11,1.64,14.28-.06,17.12-2.94-.52-.14-1-.43-1.42-.34-10.27,2.23-18.16-4.38-18-15.19,0-2.29-.25-5.18,2.94-5.44,2.82-.23,3.74,2,4.28,4.56,1.7,8,9.93,11.35,17.1,7.19a3.13,3.13,0,0,0,1.72-3.28c-.12-1.38-.47-2.79-1.76-3.4-1.69-.8-1.61,1.17-2.34,1.86-2.92,2.77-6.14,1.79-8.66-.07-2.67-2-4.95-5.11-3.61-8.63,1.21-3.19,4.55-2.82,7.41-2.27,3.1.59,6.18,1.32,9.28,1.94,1.13.23,2.41.55,3.08-.8a2.53,2.53,0,0,0-.9-3.13,18.46,18.46,0,0,0-3.8-2.29c-4.11-1.92-8.15-.45-12.23.32-2,.37-4.14.63-4.73-2.19-.51-2.42.1-4.34,2.59-5.22,1.88-.66,3.82-1.14,5.72-1.74,1.1-.35,2.48-.65,2.45-2.07s-1.26-1.85-2.33-2.33c-5.34-2.4-10.86-1-14.65,3.86-1.93,2.47-3.43,5.27-6.89,6.15-2.71.69-5.44,1.61-6.87-1.66-1.36-3.12-.28-5.8,2.5-7.83,1-.76,3.57-.6,2.71-2.65-.69-1.64-2.85-1.53-4.5-1.32-5.12.67-7.67,4.36-9.43,8.63a9.74,9.74,0,0,1-7.24,6.19c-4.37,1-6.22-.75-5.62-5.32.39-3,2.43-5.23,3.89-8-5.6.16-8.77,2.21-9.47,6.77-1.21,7.85-.84,15.7,3.17,22.79,1.91,3.37,2,6.25-.29,9.21-5.66,7.28-6.09,15.51-4.87,24.21,1.71,12.19,6.29,23.44,11,34.63C564.25,211.65,563.28,216.61,568.41,218.56ZM561,270.81a37,37,0,0,0,11.73-5.53c2.81-2,3.87-1,4.08,2,.34,4.81.81,9.62,1,14.44.52,17.11,5.25,33.93,3.49,51.19a48.78,48.78,0,0,0-.08,5.5c0,1,.16,2.15,1.46,2.19s1.25-1.29,1.49-2.18a6.55,6.55,0,0,0,.35-2c-.51-10.75.66-21.63-1.82-32.2-1.32-5.62-1.16-11.18-1.42-16.8-.23-5,.53-10-1.15-14.87-2.41-7-3.35-14.23-4-21.55-.27-3.08.44-6.37-1.76-9.71a25,25,0,0,1-5.07,13.11c-1.58,2-3.87,3-6.21,1.87-2.57-1.26-1.72-3.86-.93-5.76a89.37,89.37,0,0,1,4.63-8.83c5.29-9.51,3.46-18.78-5.13-25.6-1.12-.89-2.48-2.74-3.76-1.6-1.68,1.51.41,2.93,1.25,4.2,4.61,7.05,4.06,21-1.31,27.36-1.23,1.46-2.94,3.4-5,2.34s-2.06-3.61-1.58-5.81a8.92,8.92,0,0,1,1-2.28c4.68-8.62,3.77-15-3.17-21.92-.92-.92-2-2.38-3.31-1.31s-.23,2.46.74,3.33c5.48,5,5.69,11,3.49,17.42-.84,2.45-.36,6.78-4.08,6.36-3.48-.39-2.07-4.34-2.2-6.79-.43-7.82-8.77-17.61-16.31-18.55,2.9,3,5.76,5.65,8.34,8.57,1.85,2.09,4.38,4.76,2.4,7.46s-4.8-.07-7.15-.82c-5.41-1.71-10.55-4.62-16.64-4,.19,2.21,1.58,2.36,2.82,2.82,4.85,1.77,9.69,3.57,14.85,4.26,1,.14,2.32.35,2.49,1.33.27,1.58-1.34,1.64-2.39,1.94-5.3,1.48-10.67,2.35-16.17,1.25a9.22,9.22,0,0,0-7.43,1.68c1.42,1.83,3.23,1.21,4.79,1.44,8.31,1.25,16.63-.31,24.95,0,1.09,0,2.65-.46,3.06,1,.51,1.76-1.28,2.2-2.38,2.63-4.21,1.68-8.73,2-13.13,2.94A24.22,24.22,0,0,0,515,256c2.27,1.09,3.71.54,5.19.41,8.16-.76,15.6-4.81,23.83-5.19,1.72-.08,4.2-1.15,4.67,1.23.36,1.83-2.08,2.22-3.62,2.73-5.71,1.89-10.41,5.88-16.32,7.42,10.35,2.67,18.86-5.53,28.9-4.69-5.27,3.91-10.76,7.06-16.53,12.25,6.08-.9,10.76-1.44,14.57-4.34,2.43-1.85,5.3-1.82,7.93-2.77a1.56,1.56,0,0,1,2.12.73c.43.89-.09,1.59-.59,2.27C564,267.65,561.59,268,561,270.81Zm-72,87.1c.4,2.57.75,4.34,1,6.12,1,8.72,3,17.37,1.76,26.24-.15,1-1.2,2.65.47,2.92,1.91.31,1.62-1.7,1.79-2.88,1.31-9.18,0-18.2-1.82-27.16C491.81,361.44,491.59,359.52,489,357.91ZM510.14,65.3c1.34,3.71,3.82,3.8,6.35,3.4,3.8-.61,5.66-3.24,6.36-6.79.26-1.31,1.87-3.16-.21-3.88s-2.09,1.48-2.58,2.85C517.56,68,517.19,68.15,510.14,65.3Zm54.34,188.88c5.08-4.13,6.68-8,5.52-13.09C568.11,245.52,564.59,248.62,564.48,254.19Z"/><path d="M280,196.67c10.06-4.89,15.74-13,23.1-19.13,5.34-4.43,10.86-8.67,15.61-13.84,2.32-2.53,6-.93,6.73,2.61,1,4.5-.67,8.53-2.83,12.36-5.66,10-13.62,18-22.41,25.25-1.48,1.23-3.4,2-4.37,4.63,8.42,1.25,16.6,1.91,24.86.76,5.67-.79,11.29-.87,16.84.76,5.36,1.57,10.43,6.1,9.44,9-1.66,4.85-6.24,5.47-10.58,6.08-8.88,1.25-17.57-.69-26.33-1.54-5.89-.57-11.84-.61-18.27-.91.87,2.63,2.64,3,4,3.75,6.94,3.72,9.82,10.2,11.47,17.28,3.11,13.36-.25,26.38-2.55,39.45-3.27,18.6-9.84,36.27-14.95,54.35-2.66,9.42-4.14,19.17-6.12,28.79-.26,1.26-.9,3,.65,3.6,6.44,2.67,4.59,8.06,4.35,12.87a40.54,40.54,0,0,1-1,5.9c-.32,1.6-.14,3.42,1.21,4.06,5.22,2.47,4.18,7,4,11.21-.14,3-.48,6-.62,9-.11,2.26-.58,4.53,2.41,5.8,1.89.8,1.66,3,1.31,4.92-.41,2.16-2,3-3.89,3.32a82.57,82.57,0,0,1-16.92,1.13c-6.49-.19-13,0-19.49,0-2.14,0-4.89.17-5.27-2.54-.33-2.4.25-5.36,3-6.26,3.1-1,3.32-3,3.4-5.7A112.53,112.53,0,0,1,258,399.71c.55-3.56,1.13-7.42,5.88-8.22,2-.34,1.76-2.16,1.79-3.61q.12-5.25.1-10.49c0-3.19.62-6,3.88-7.45,1.55-.71,1.88-2.14,2.14-3.7,1.45-8.86,2.46-17.82,5.51-26.34.92-2.56-.05-3.44-2.45-4.22-3.47-1.13-6.84-2.64-9-5.93a8,8,0,0,1-.9-7.6c.84-2.33,1.89-3.06,4.46-1.86A111.73,111.73,0,0,0,281,324.68c1.65.56,3.32.68,3.75-1.8,2.46-14.32,9-27.57,11.4-41.86a277.25,277.25,0,0,0,3.6-30.2c.6-10-3.77-15.88-12.64-18.34,3.41,10.57-4.71,16.49-9.57,23.35-7,9.89-15.18,19-22.95,28.3-1.31,1.58-2.71,4-5.22,2.93-2.18-.92-1.54-3.45-1.68-5.39-1.18-17,4-32.5,11.89-48.46-10,4.79-19.72,7.77-29.29,11.07-9.13,3.15-18.32,6.12-28.2,6-5.14-.07-6.16-1.36-3.35-5.83,5.24-8.31,12.58-14.47,21-19.48a96.21,96.21,0,0,1,19.65-9c-6.94-1.43-13.81-2.4-20.29-5-8.86-3.49-15.68-9.29-20-17.87-2-4-1.34-5.44,3.07-4.88a185.37,185.37,0,0,1,18.55,3.77c9.21,2.14,18.31,4.69,28.53,8.13-1.59-3.86-2.67-6.69-3.9-9.46-5.8-13-7.27-26.51-5.5-40.5.17-1.34.23-3,1.51-3.5,1.85-.65,2.45,1.33,3.23,2.48,7.52,11,14.91,22.05,20.38,34.26.32.72.76,1.4,1.62,3,.61-5.14.84-9.38,1.64-13.51,3.21-16.53,13.38-29.55,22.26-43.18,2.21-3.39,4.47-1.4,5.55,1.13a22.49,22.49,0,0,1,1.34,12.72A185.57,185.57,0,0,1,282,192.52Zm2.19,30.72c2.54,1,5.13,1.94,7.63,3.07,6,2.74,10.67,6.6,11.73,13.73,1.85,12.43-.91,24.58-2.85,36.62C296.26,295.9,289.48,310,287,325.15c-.5,3-2.24,3.88-5,2.86-3.59-1.32-7.15-2.76-10.76-4-1.15-.4-2.58-1.5-3.64,0a3.77,3.77,0,0,0,.09,4.25c2,3.49,5.44,5,9.05,5.58,3.83.6,4.82,2.06,3.45,5.64-4,10.52-5.15,21.65-6.47,32.72-.16,1.33-1.31,3.2,1,3.74,1.89.45,3.85-.09,4.64-2a45.77,45.77,0,0,0,1.88-6.71c2.82-12,3.69-24.44,7.84-36.07a321.33,321.33,0,0,0,16.42-66.23c1-7.5,1.13-15-.68-22.32-2.21-8.89-8.32-14.51-17-17.48-1.29-.44-3.49-.54-3.22-2.47.3-2.16,2.56-1.82,4.1-1.82,7.82,0,15.64-.33,23.44.85,8.88,1.35,17.81,2.79,26.77.59,2.25-.55,5.16-1.11,5.51-3.63.37-2.72-2.34-4.2-4.45-5.46a13.59,13.59,0,0,0-7.12-2c-3.82,0-7.67-.08-11.47.24-8.82.75-17.62.93-26.36-.69-1.34-.25-3.43.32-3.8-1.54s1.57-2.81,2.88-3.71a95.88,95.88,0,0,0,22.89-22c3.29-4.4,6.42-9,6.5-14.84,0-1.31-.08-2.77-1.36-3.57a2,2,0,0,0-2.71.54c-3.65,5.6-9.72,8.46-14.37,12.93-7.76,7.46-14.94,15.57-24.17,21.34-1.09.68-2.18,2.76-3.7,1.26-1.11-1.1-.41-2.87.17-4.26.7-1.69,1.52-3.33,2.32-5a167.56,167.56,0,0,0,13.76-39.48c1-4.69,2.91-9.32,2.07-14.24-.41-2.37.24-6-2.31-6.65s-3.11,3-4.34,4.73c-9.9,14.16-18.44,28.94-19.39,46.84-.17,3.15-.4,6.31-.75,9.45-.08.71-.72,1.85-1.23,1.93-1.29.2-1.31-1.06-1.63-2-4.69-13.83-12.21-26.17-20.23-38.23-.67-1-1.33-2.4-3.34-2.13-2.43,17.69,1.8,33.83,11.23,48.79.67,1.07,2.24,1.91,1.19,3.4-.93,1.31-2,.33-3.06-.15-14.8-6.8-30.76-9.52-46.46-13.18-3.47-.81-4,.7-2.54,3.38A32.75,32.75,0,0,0,216.11,207c10.17,5.53,21.44,5.57,32.5,6.72,1.74.18,4-.52,5.38,2.43-22.86,2.2-40.89,11.88-53.31,31,4.73.27,9.19.34,13.56-.89,15.87-4.45,31.67-9.09,46.25-17,1.06-.58,2.42-1.79,3.63-.61s-.17,2.48-.79,3.5a95.18,95.18,0,0,0-8.59,19.08c-3.62,10.45-5.63,21.06-4.11,32.25,2.5-.29,3.43-2.09,4.41-3.45,8.46-11.76,18.91-21.93,26.85-34.11C286.67,238.6,287,234.79,282.18,227.4Z"/><path d="M110.31,237.89c-4.86-2.1-8.88-1.85-12.86-2.08-11.59-.7-23.3,1.43-34.8-1.36-5.86-1.42-11-4-13.88-9.62-1.59-3.07-.75-3.9,2.77-4a134.47,134.47,0,0,1,47.41,8c3.56,1.26,8.61,1.76,10-1.37s-3.1-5.52-5.94-7.48c-6.72-4.62-13.48-9.18-20.15-13.86-5.37-3.77-10.09-8.3-13.17-14.13-2.08-3.93-4.9-4.44-8.71-3.42a49.37,49.37,0,0,1-34.09-2.7c-6.88-3.11-11.8-8.48-16.68-13.89-1.34-1.48-3.25-3.45-1.91-5.76s3.58-.57,5.44-.44a26.29,26.29,0,0,0,2.69-.1c-.81-3.65-3.57-5.86-4.91-8.81-.89-2-2.2-4.26-.39-6.06s3.55.53,5.26,1.26,3.25,3.27,5.24,1.52.5-4.07,0-6.13c-.61-2.54-4-5.3-.79-7.56,2.55-1.8,5.28.76,7.73,2.09,1.26.68,2.47,2.5,3.9,1.51,1.29-.89.6-2.8.37-4.25-.45-2.79-1.21-5.55-1.47-8.35-.36-3.84,1.43-5,4.79-3a35.5,35.5,0,0,1,5,4.11c.84.72,1.41,2.11,2.83,1.42,1.25-.61,1.22-2,1.1-3.09-.22-2.14-.63-4.26-1-6.38-.3-1.8-1-3.82.56-5.18,1.81-1.59,3.81-.3,5.6.48,2.5,1.09,3.57,3.23,4.28,5.79.45,1.63.46,4.52,2.57,4.28,2.58-.29,1.6-3.24,1.75-5,.26-3.14,0-6.32.07-9.48,0-1.33.06-2.91,1.51-3.43,1.62-.58,2.8.63,3.88,1.7,2,2,2.4,4.72,3.74,7,.52.88,1.13,1.71,2.3,1.62s1.46-1.2,1.63-2.17a33,33,0,0,0,.62-4.44c.16-4,1.36-7.4,5.81-8.12,4.23-.68,7,1.74,8.67,5.34,4.74,10,7.63,20.59,9.81,31.37a28.86,28.86,0,0,1-.23,9.93c-1.74,11.68-8.9,19.81-17.29,27.19-4.51,4-4.53,4.61.42,8.42C87.34,195,95.8,199.59,102,207c3.11,3.71,6.26,7.35,10.32,10.07a10.15,10.15,0,0,0,2,1.45c2.16.73,4.47,2.43,6.63,1,1.83-1.23,1-3.72.95-5.63a45.22,45.22,0,0,0-5.09-18.66c-2.16-4.26-3-8.82-3.89-13.38-.82-4.17,1.26-5.87,5.46-5a8.42,8.42,0,0,1,5.95,4.2c3.41,6.48,6.72,13.07,6.61,20.67-.1,6.66-.41,13.32-.56,20,0,1.41-.38,3.37,1.45,3.75,1.49.31,2.08-1.47,2.64-2.6a50.28,50.28,0,0,0,4.69-16.73c1-8.09,1.41-16.3,5-23.83a18.21,18.21,0,0,1,2.85-4.63c3.57-3.82,7-3,9.23,1.8a18.81,18.81,0,0,1,1.27,7.83c.09,16,.69,32.15-11.19,45.26a35.34,35.34,0,0,1-9.6,7.06c-2.92,1.6-3.92,3.82-3.6,7a61.18,61.18,0,0,0,3.18,15.59c3.48,9.24,5,19,5.66,28.79a66.2,66.2,0,0,0,3.59,17.56c4,11.24,3.35,23,5,34.44,1.9,13.34,2.79,26.78,4.63,40.12.43,3.08,1.09,6.22,4.45,7.88,1.59.79,1.89,2.4,1.88,4.27-.07,10.37-1.85,20.53-3.53,30.71-.79,4.78-4.93,2-7.42,2.84s-3-1.88-2.91-3.58c.44-5.45-2-4.65-5.75-3.4a103.5,103.5,0,0,1-34.23,5.7c-1.27,0-2.86.29-3.49-1.27s.39-2.9,1.55-3.88c3.2-2.68,6.45-5.07,10.86-5.73,7.55-1.12,14.72-4.11,22.41-4.7,3.12-.24,4-2.17,3.87-5.2-.23-4.15-.07-8.31-.06-12.47,0-2.42.27-4.78,2.91-5.81,2-.78,1.63-2.29,1.3-3.74-4.63-20.82-5.65-42.16-9-63.17-3.21-20.19-5.64-40.5-8.3-60.77-.59-4.5-2.19-8.71-3.17-13.09-.43-1.92-1.45-2.88-3.61-2s-4.86,1.4-7,2.63c-14.35,8.29-28.3,6.66-42.07-1.36A8.72,8.72,0,0,1,71.61,245c-1.15-1.38-2.72-2.82-1.57-4.83s3-1.75,4.89-1.39q9.56,1.77,19.13,3.45C99.81,243.23,104.7,241.16,110.31,237.89ZM130.53,251c1.05-11.25,1-11.41,6.77-14.68A31.29,31.29,0,0,0,153.21,215c2.05-10,3.65-20.37,1.88-30.75-.43-2.52-.13-6.2-3.23-6.68-3.59-.55-4.51,3.24-5.91,5.79a23,23,0,0,0-1.31,3.24c-2.29,6.34-2.84,13-3.42,19.62-.6,6.88-2.26,13.46-6,19.36-1.15,1.85-3,3.81-5.16,3.35-2.76-.58-2.09-3.5-2.06-5.5.1-6.33.43-12.65.73-19,.41-8.32-2.63-15.67-6.56-22.69-1.14-2-3.3-3.9-5.81-2.83-2.82,1.21-1.07,3.74-.65,5.69a64.47,64.47,0,0,0,4.65,13.16,44,44,0,0,1,3.88,18.94c-.06,5.46-1.47,6.7-6.71,5.14A26.19,26.19,0,0,1,104.5,213c-7.05-9-16.21-15.22-25.39-21.55-7.83-5.4-8-7.34-.84-13.24.64-.53,1.37-1,2-1.52,6.81-6.16,12.51-13.22,13.87-22.52,2.24-15.39-4-29-10.18-42.45a3,3,0,0,0-.65-.76c-3.24-3.27-7.13-2.3-8.23,2.18-.56,2.25-.63,4.62-1,6.92-.27,1.7-.87,3.36-2.75,3.81a4.35,4.35,0,0,1-4.77-2,47.21,47.21,0,0,1-2.49-5.4c-.42-.88-.94-1.93-2.17-1.57-1,.3-.78,1.36-.82,2.14-.18,3.49-.12,7-.53,10.47-.23,2-.16,4.82-3.17,4.87-2.61,0-3.46-2.31-4.21-4.35s-1.07-4.59-2.91-6.26c-.86-.78-1.87-1.65-3.1-1.17-1.5.59-.8,1.93-.69,3,.28,2.64.67,5.28.76,7.93.06,1.85-.33,3.79-2.29,4.64s-3.38-.63-4.83-1.77c-1.87-1.47-2.68-4.31-5.93-4.53-.71,4.31,1.17,8.27,1.12,12.37,0,1.45.36,3.12-1.19,4.09s-2.84-.22-4.09-1c-1.57-.94-3-2.06-4.66-2.9a2.82,2.82,0,0,0-2.32-.08c-.95.55-.1,1.46.06,2.21.5,2.27,1.35,4.52,1.44,6.8.21,4.87-2.38,6.32-6.63,4-1.37-.74-2.39-2.39-4.7-1.74.15,2.66,2.18,4.36,3.2,6.51s4.47,4.07,2.83,6.93c-1.46,2.54-4.64.58-7,1.16-.24.06-.41.43-.88,1A39.13,39.13,0,0,0,24.84,182c8.1,4.67,17.09,7.46,26.79,5.81,4.27-.73,8.61-1.16,12.77-2.31,3.08-.85,4.55,0,5.88,2.68a43.1,43.1,0,0,0,14.77,16.6c4.13,2.8,8.44,5.37,12.44,8.35,4.76,3.56,10.56,5.89,13.9,11.18,2.4,3.8,1.51,5.76-2.8,6.81a21.52,21.52,0,0,1-12.27-.85c-13.14-4.45-26.51-7.58-40.54-6.31-1.21.11-3.06-.87-3.52.78s1.34,2.52,2.51,3.35c6.9,4.91,14.72,5.58,22.89,5.19a188.75,188.75,0,0,1,30.41,1c2.1.24,4.64.58,4.85,3.4.18,2.48-2.15,3.29-3.87,4.05a31,31,0,0,1-19.48,2.13c-5.51-1.16-11-2.57-18.22-2.49,7.86,6.85,15.61,9.83,24.59,9.73a39.47,39.47,0,0,0,19.05-5C125.69,240.22,125.85,240.52,130.53,251Zm1.55,8.84c.89,7.92,1.59,15.87,2.71,23.76,2.83,19.91,6.22,39.76,8.66,59.71,1.66,13.56,3.47,27.06,6.07,40.46.31,1.6-.56,4.91,2.49,4.44,2.8-.43,1-3.09.79-4.62-1.61-15-3.9-30-5-45.12-.79-11.33-2-22.4-5.55-33.27-1.85-5.62-2.35-11.69-3-17.66C138.14,278.09,137.19,268.43,132.08,259.89Z"/><path d="M194.35,382.94a8.81,8.81,0,0,0,.94-1c1.14-2.64,1.1-6.37,4.92-6.77,2.75-.29,4.63,1.72,5.79,4,1.67,3.33,1.84,6.72-.53,9.87a16,16,0,0,1-5.73,4.71c-5.34,2.66-7,11.64-3.07,16.2s4.21,8.59.5,12.81c-2.5,2.84-11.85,4.54-14.77,2.69-3.27-2.07-3.68-12.55.33-15.06,5.38-3.36,3.8-7.88,3.71-12.2-.3-13.29-1.2-26.57.26-39.84.42-3.78.46-6-4.64-6.33-4.91-.33-.88-3.39-.55-5.71-1.73-.63-4.66.34-5.49-2.44-.75-2.5,1.06-3.86,2.54-5.5s-.51-3-1.32-4.24c-6.73-10.7-4.86-24.73,4.36-32,1.21-1,2.45-2.8,4.27-1.3,1.43,1.18,1.32,3,.72,4.63-1.18,3.27-2.53,6.48-2.85,10.06,4.2-3,5-2.48,7.44,5,1.36-2.83.88-5.22.8-7.59-.05-1.72.26-3.48,2.31-3.89,1.79-.36,2.63,1.09,3.44,2.37a10.39,10.39,0,0,1,1.48,5.22c.08,1.75-.63,3.61.48,5.34,3.88-3.41,3.77-11.4,0-16.56-1.17-1.6-3.94-2.81-2.19-5.41,1.58-2.34,4.24-1.64,6.47-1.36,11,1.36,16.5,15.63,10.19,26.53-3.23,5.58-7.73,9.87-15.09,11.51,3.27,2.28,8.13,3.3,3.73,7.82-.77.79.44,1.38.86,2,2.47,3.77,1.79,5.46-2.61,6.5-7,1.66-7.46,2.31-7.23,9.52C194,369.16,193.38,375.77,194.35,382.94Zm-10-33.09c5.68-1.13,5.46,2.65,5.2,6.27-.38,5.14-1.62,10.32-1.28,15.39.85,12.75.62,25.49.76,38.24,0,1.15.43,1.49,1.29,1.66,1.06.21,1.5-.31,1.46-1.37-.06-1.66-.09-3.33-.06-5,.09-6.42.09-12.5,8.33-14.83,4.37-1.23,5.84-6.54,4-9.89-.66-1.22-1.5-2.24-3-2.23s-1.93,1.1-2.37,2.21c-.79,2-1.42,4.1-2.39,6-.63,1.25-1.27,3.17-3.1,2.73s-1.34-2.42-1.39-3.84c-.31-8.79-.61-17.59-.82-26.39-.14-5.53,1.69-7.48,7.3-8.1,1.41-.16,3.07.12,3.65-1.85-1.78-2.18-6.24.42-6.52-2.78-.23-2.54,3.69-2.81,5.49-4.43.16-.15.08-.56.12-.88-1.45-1.38-4.9.38-5-2.87s2.75-3.77,5-4.75c.15-.07.32-.1.47-.16,12.06-4.36,15.21-17.47,11-26.52-1.77-3.78-5.08-5.09-8.74-5.85a3.45,3.45,0,0,0-2.75.66c-.89.91.26,1.8.79,2.54,3.6,5,3.81,10.51,2.63,16.24-.48,2.35-1.32,5-4.14,4.82-3.21-.21-3.33-3.12-3.48-5.71-.11-2,.65-4.31-1.3-6-.34,3.25-.54,6.4-1.84,9.3-.63,1.4-1.69,2.64-3.44,2.37s-2-1.88-2.21-3.42.41-2.95-.73-4.3c-1.77.92-1.72,2.7-2.19,4.21-.39,1.26-.66,3-2.21,2.92-1.92-.14-1.69-2.16-1.84-3.53A21.56,21.56,0,0,1,182.7,310c.77-1.85,1.67-3.73,1.35-6.09-9.23,6.11-11.24,18.91-4.63,29,2.45,3.75,4.55,7.08-1.64,10C185.33,343.5,186.14,344.42,184.4,349.85Z"/><path d="M378.49,61.62c2,3.9,1,6.78-.46,9.64-1.05,2.09-2.58,3.42-5.07,3.19-2.67-.24-3.82-2.35-5.1-4.26a1.19,1.19,0,0,1,.19-1.75,1.65,1.65,0,0,1,1.33,0c2,.87,2.76,5.61,6.06,2,1.72-1.87,2-4.47,2.32-6.94A11.53,11.53,0,0,1,378.49,61.62Z"/><path d="M447.5,132c1.55,0,2.21,19.38,9.62,2.23,1.61-3.73,3,5.52-2.77,9.63-1.85,1.31-4,.74-5.33-1.14C446.81,139.59,444.49,132,447.5,132Z"/><path d="M274.49,208.29a10.26,10.26,0,0,1,4.8,5.12c1.32,3,2.13,6.86-.43,8.75-3,2.2-6.93.23-10.34-.89a1.06,1.06,0,0,1-.59-1.6,1.69,1.69,0,0,1,1.24-.52c.47,0,.95.3,1.43.34,2.35.21,5.45,2.06,6.85-.26,1.61-2.69-.13-5.7-2.09-8.13C274.79,210.39,273.63,209.9,274.49,208.29Z"/><path d="M86.46,142.95c1.72,2.91.3,5.1-.44,7.1-4.28,11.66-9.1,23-20.95,29.29-2.51,1.33-5.14,2.57-8,.84-.73-.44-1.41-1-1.2-2s1.08-1.09,1.95-1c7.54,1.13,12.1-3.46,16.14-8.67a64.38,64.38,0,0,0,10.38-20.33C84.85,146.59,85.63,145,86.46,142.95Z"/><path d="M193,333.09a5.37,5.37,0,0,1-2.93,6,2.08,2.08,0,0,1-3.22-1.07c-.68-1.53-.37-2.69,1.64-2.29C190.79,336.14,190.59,332.78,193,333.09Z"/><path d="M64.61,144.61a1.59,1.59,0,0,0,0,3.19A1.59,1.59,0,0,0,64.61,144.61Z"/><path d="M57.82,151.43a1.59,1.59,0,0,0,0,3.19A1.59,1.59,0,0,0,57.82,151.43Z"/><path d="M265.23,201.55a1.59,1.59,0,0,0,0,3.19A1.59,1.59,0,0,0,265.23,201.55Z"/><path d="M261,208.82a1.59,1.59,0,0,0,0,3.19A1.59,1.59,0,0,0,261,208.82Z"/><path d="M450.59,117.42a1.59,1.59,0,0,0,0,3.19A1.59,1.59,0,0,0,450.59,117.42Z"/><path d="M457.12,117.42a1.59,1.59,0,0,0,0,3.19A1.59,1.59,0,0,0,457.12,117.42Z"/><path d="M373.68,55.53a1.27,1.27,0,0,0,0,2.55A1.27,1.27,0,0,0,373.68,55.53Z"/><path d="M367.57,58.81a1.27,1.27,0,0,0,0,2.55A1.27,1.27,0,0,0,367.57,58.81Z"/><path class="cls-1" d="M517,47.75a1.59,1.59,0,0,0,0,3.19A1.59,1.59,0,0,0,517,47.75Z"/><path class="cls-1" d="M507.78,52.25a1.59,1.59,0,0,0,0,3.19A1.59,1.59,0,0,0,507.78,52.25Z"/><path d="M187.5,329.47a1,1,0,0,0,0,2A1,1,0,0,0,187.5,329.47Z"/><path d="M190.5,328a1,1,0,0,0,0,2A1,1,0,0,0,190.5,328Z"/><path d="M378.75,111.51a28.26,28.26,0,0,1,2.83,6.3c.89,3.42-5.66,3.66.46,4.48,1.66.22,2.48-3.4.77-7.33s-1.63-5.47-3.15-5.25C377.61,110,378.75,111.51,378.75,111.51Z"/><path d="M424,271.79a17.32,17.32,0,0,0-7.84-3c-5.77-.95-6.1-1.59-2.53-6.39a148.56,148.56,0,0,1,10.21-12.28c5-5.35,4.74-10.56-1.28-14.79a32.86,32.86,0,0,0-8.43-4.26c-7.24-2.39-12.08,0-14.61,7.26-2.3,6.59-4,13.38-6.38,20s-4.93,13.09-8.78,19c-.89,1.37-2.09,2.95-4,2.21-1.71-.65-1.4-2.47-1.4-3.94a8.8,8.8,0,0,1,.28-2.47,249.6,249.6,0,0,0,8.13-38.55c.6-4.78,1.59-9.52,2.57-14.25.63-3.08,2-5.82,5.63-6.08,5.81-.4,11.64-1,17.41.35,2.32.55,4.83,1.33,6.09-1.49,1.16-2.61,0-4.93-2-6.71a15.89,15.89,0,0,0-14.42-3.76c-3.09.61-6.14,1.68-9.37,1.13-1.35-.23-2.62-.73-3.11-2.17s.5-2.46,1.56-3.34c5.32-4.4,11.11-5.6,17.72-3.13,4.86,1.81,8.21,1.08,9.65-1.77l0,0a5.7,5.7,0,0,0,.71-2.66c0-.07,0-.14,0-.21.21-2.34,0-5.42-.74-6.94-1.16-2.4-6.18-1.52-6.18-1.52h0a14.7,14.7,0,0,0-3.07.72c-5.58,1.62-11.17,3.28-17,3.78-2,.17-4.29,0-4.59-2.66s2.06-2.49,3.74-3c4.41-1.26,8.93-.64,13.4-.79,4-.13,5.3-3,6.21-6.13a6.54,6.54,0,0,0,.23-1.18h0a6.51,6.51,0,0,0-2-5.1,4,4,0,0,0-4.77-.19h0a7,7,0,0,0-.67.39c-3.72,2.49-7.86,2.44-12,2.22-2-.11-4.47,0-4.27-2.88.19-2.67,2.31-2.85,4.51-2.31a9.76,9.76,0,0,0,2,.29c1.15,0,2.44.23,3.11-1,.81-1.52-.29-2.45-1.21-3.44-1.47-1.58-3.45-1.83-5.4-2.31-1.6-.4-3.66-1.1-2.74-3.26.82-1.93,2.55-.73,3.86-.14s2.31,1.37,3.55,1.8c3.7,1.29,5.08.08,4.32-3.72s-2.06-6.87-6.91-6.86c-1.84,0-4.43-1.3-3.44-3.76.87-2.17,3.21-2.67,5.49-1.16,1.11.73,2.29,1.35,3.47,2,.88.47,1.83,1,2.77.22a2.31,2.31,0,0,0,.48-2.76c-1.32-3.55-2.11-7.51-7.53-6.85-2.38.29-4.16-1.18-3.81-4s2.23-3.38,4.7-2.85l3.91.82c1.76.37,3.4.16,4.41-1.48s.32-3.07-.74-4.55c-2.47-3.43-5.56-4.39-9.6-3.24-2.29.65-4-.31-4-3s1.84-2.91,3.83-2.7a36.39,36.39,0,0,1,3.9.82c1.52.33,3.05.49,4.11-.93,1.21-1.61.46-3.23-.42-4.65-1.82-2.94-4.45-3.65-7.78-2.79-1.63.42-3.74.24-3.76-2s2-2.36,3.72-2.31a16,16,0,0,1,2.44.5c2.28.44,4.92,1.29,5.86-1.81s-1.45-4.44-3.76-5.62-5.23-.46-7.53-2.37c2.44-2.39,5.22-1.48,7.76-1.67,2-.15,4.19-.08,5-2.4s-.62-3.9-2-5.28c-2.07-2-4.44-3.58-7.6-2.4-1.49.56-3.31,1.83-4.07-.7-.62-2.05-.17-4.07,2.18-4.91,2.82-1,5.67-1.92,8.54-2.78,1.59-.48,3.58-.6,3.68-2.71.12-2.35-.31-4.76-2.42-6.24a4.33,4.33,0,0,0-5.15,0,33.93,33.93,0,0,1-3.33,2.18c-1.43.72-3,1.9-4.49.13a3.94,3.94,0,0,1-.14-4.68A20,20,0,0,1,392.35,55c3.06-2.65,3.05-6.08,1.78-9.61-.92-2.56-2.64-4.4-5.52-4.24-4.19.23-3.78,4-4.7,6.66-.05.16-.07.33-.11.49-.36,1.37-1,2.67-2.63,2.42s-1.94-1.74-1.88-3.08a39.67,39.67,0,0,1,.66-4.94,12.8,12.8,0,0,0-1.66-9.55,6.19,6.19,0,0,0-6.8-3c-3.13.47-3,3.13-3.11,5.44-.06,2,.2,4,.25,6,.06,2.47,1.05,5.08-.9,7.84-1.6-4-3-7.54-4.42-11-1.1-2.65-3.26-4-6-3.32-2.9.75-2.1,3.42-1.83,5.46.33,2.46,1.06,4.86,1.51,7.31.5,2.71,3.44,6.06,1.37,7.85s-4.23-2.12-6.55-3.15c-1.89-.84-3.88-1.68-5.58,0s-.59,3.35.22,5.05a24.18,24.18,0,0,0,7,9.37c-1.93,1.6-3.79,1.11-5.56,1.09s-4-.48-4.74,1.71c-.79,2.34,1.11,3.68,2.81,4.73a36.13,36.13,0,0,0,28.21,4.7c2.12-.49,3.86-.89,5.35,1.07a3.21,3.21,0,0,1,.3,3.73c-1.13,2.18-3,2.37-5.13,2-2.78-.51-5.55-1.07-8.32-1.63-1.92-.39-3.83-.51-4.49,1.83s-.59,4.64,2,6c2.35,1.28,4.84,1.08,7.32.76,2.15-.28,4.28-.68,6.44-.1,1.14.31,2.42.54,2.72,1.86.34,1.49-.58,2.48-1.78,3.26-3.41,2.22-6.85,1.8-10.5.53-2.28-.79-5.4-1.85-5.88,2-.38,3,1.16,5.46,4.75,5.83a14.79,14.79,0,0,0,9.1-2c1.71-1,3.27-.64,4.08,1.33.89,2.17-.09,3.52-2.13,4.25a6.31,6.31,0,0,1-4.86-.39,16.32,16.32,0,0,0-6.23-1.65c-2.32-.07-5.58-1.55-5.87,2.35-.26,3.46,1.72,6.38,5.33,6.79,5.29.6,9.6-3.21,13.76-5.35,4.67-2.4,2.54-8.45-3.05-10.56.36-.32.67-.77,1.08-.91,3.1-1,5-3.37,4.47-6.38-.59-3.38-4-2.91-6.56-3-2.83-.09-5.66,0-8.49,0-2,0-3.94-.72-3.7-3,.26-2.55,2.47-1.59,4-1.37,2.3.33,4.58.85,6.85,1.34,2.66.58,5.08.3,6.57-2.23,1.2-2,2-4.32.4-6.55a5.85,5.85,0,0,0-7-2.48c-5.72,1.68-11.53,1.27-17.3.32-4.42-.73-8.55-2.11-11.63-6.1,2.83-1.2,5.67,0,8.06-1.46s3.82-3.05.59-5.08a10.73,10.73,0,0,1-4.66-5c-.64-1.64-2.65-3.57-1.28-5,1.82-1.87,2.92,1.08,4.41,1.75,1.21.54,2.3,1.34,3.51,1.89,1.41.64,2.61,2.81,4.33,1.49s.75-3.47.31-5.16c-1.2-4.67-3-9.18-3.39-14-.07-1-.47-2.11.73-2.62a2.06,2.06,0,0,1,2.8,1.39c1.25,3.08,2.39,6.2,3.46,9.35.59,1.74.84,4,3.23,3.72S371,49.42,371,47.39c.07-3.49-.33-7-.25-10.48,0-1.83-.56-4.4,2.27-4.84,3-.47,3.94,2,4.7,4.22,1.08,3.18-.57,6.23-.68,9.37s-.52,6.59,3.43,7.2c3.66.56,5.07-2.28,5.78-5.54.39-1.79.38-4.49,3.28-4.1,2.74.37,2.85,2.89,3.09,5a5.47,5.47,0,0,1-2.57,5.55A12.34,12.34,0,0,0,385,61a6.07,6.07,0,0,0,1.54,6c1.74,1.75,3.78.78,5.6,0s3.2-1.79,4.85-2.57,3-.62,3.7,1.2.08,3-2,3.62a92.83,92.83,0,0,0-9,3c-4.12,1.59-3.89,5.36-3.19,8.48.87,3.9,3.91,1.82,6.11,1.16,1.65-.5,3.2-.9,4.85-.2,1.84.78,3.22,2.22,3.1,4.13-.15,2.43-2.39,1.79-3.93,1.78a15.38,15.38,0,0,0-6.38.88c-1.36.59-3.13,1-3.09,2.81,0,2,1.61,2.66,3.4,3a68.81,68.81,0,0,1,6.77,1.6,2.17,2.17,0,0,1,1.77,2.62c-.44,1.55-1.89,1.22-2.95.92-2.46-.7-4.85-1.17-7.27.12-1.79,1-2.92,2.31-2.53,4.39s1.92,3,4,3.11a24,24,0,0,0,3-.16c2.21-.2,4.39-.3,5.73,2,.43.73.87,1.64,0,2.24-1.8,1.3-3.49-.18-5.23-.45-2.4-.37-4.74-.63-6.18,1.88a5.22,5.22,0,0,0,.49,6.1c1.94,2.5,4.56,1.6,6.87.76,2.7-1,4.52-.09,6,2,.67,1,1.46,2.12.68,3.21-1.62,2.26-3.64.59-5.43.19-3.61-.81-6.73-1-7.56,3.77-.79,4.55.34,6,5.44,6.49,4.29.45,4.79,1,4.87,5.63-1.41-.79-2.66-1.58-4-2.23-3.48-1.7-6,.2-7.49,2.88-1.79,3.28.74,4.82,3.52,5.71,1.42.46,3,.51,4.33,1.13a4.55,4.55,0,0,1,2.52,5.81c-.93,2-2.75-.25-4.13-.87-.61-.27-1.17-.65-1.8-.87-2.51-.87-5.1-1.46-6.06,2-.85,3,.79,4.62,3.67,5.38,1.87.49,4.45-.13,5.28,3.06-1-.16-1.8-.33-2.59-.4-3.66-.33-6.35.88-6.58,4.93-.26,4.35,3,4.41,6.09,4.69,5.53.49,10.5-1,15.24-3.52a2,2,0,0,1,1.73.71,5.5,5.5,0,0,1,.11,6.11c-1.62,2.66-4.05,2.42-6.58,2.4a62,62,0,0,0-8.46.25c-6.59.85-9,2.8-8,6.47,1.48,5.39,6.11,4,9.54,3.35,6-1.19,11.83-3,17.94-4.75,2.2-.15,3.39-.62,4.4,1.31,1.08,2.08.15,5.89-.15,7-1.77,3.27-3.55,2.78-10.51,1s-13.18.38-18.3,5.33c-2.82,2.73-2,5.95,1.74,7.34,2.34.87,4.75,1.41,7.32.55a37.42,37.42,0,0,1,9.84-1.56c3.7-.2,6.33,1.76,8.65,4.24.91,1,1.58,2.28.69,3.63s-2.07.88-3.19.58c-4.91-1.31-9.9-1.1-14.87-.72-8.81.68-10.84,3-12.15,11.76-2.27,15.12-3.85,30.39-8.94,45a21.58,21.58,0,0,0-1.18,8.86c.15,1.87.19,3.64,2.34,4.51s3.88.1,5.48-1.27a21.57,21.57,0,0,0,5.28-7.78,169.47,169.47,0,0,0,11.31-32c.64-2.72,1-6.33,3.77-7.22,7.53-2.42,16.56.39,19.92,7.93,1,2.33.36,4-1.37,5.77a136.18,136.18,0,0,0-13.26,16.2c-2.84,4-2.06,5.91,2.74,6.78,3.59.65,7.3.77,10.3,3.3,3.86,3.26,3.65,8.08-.52,10.88a15.65,15.65,0,0,1-10,2.51c-8.05-.5-15.86,1.51-23.78,2.19-9.13.79-13.45,5.94-16.47,13.56-7.55,19-13.68,38.56-19.34,58.24-1.88,6.55-3.41,13.2-5.09,19.81-.53,2.07-1.61,3.23-3.93,2.7s-2.07-2.3-1.7-3.94c1.73-7.46,3.12-15,5.37-22.33,7.77-25.28,15.71-50.48,22.19-76.17,5-20,10.87-39.81,13.75-60.28.41-2.94,3-7.34-1-8.91-3.78-1.46-5.24,3.18-7.18,5.66-2.58,3.31-4.15,7.56-8.94,9.16-.39-4,.31-7.08,3.5-9.46a16.3,16.3,0,0,0,3.72-4c1.25-1.87,3.16-4.15,1.07-6.28s-4.27.06-6.15,1.24S365,210.92,363,212c-1.65.91-4.08,2.34-5.17-.1-.93-2.1,1.22-3.56,3.15-4.37A30.55,30.55,0,0,0,370.3,201a3.69,3.69,0,0,0,1.14-4.09c-.74-2-2.35-1.25-3.81-1.18a44.21,44.21,0,0,1-15.77-2c-1.63-.52-4.2-.91-3.45-3.33.62-2,2.88-1.29,4.35-.69,3.53,1.43,7.21,1.09,10.85,1.35,3.17.22,6.32-.16,7.95-3.05s-1.48-4.68-2.85-6.8a3.17,3.17,0,0,1-.24-.88c3.36-1.63,5.54-3.89,3.75-7.89-1-2.3.07-3.12,2-4.05,2.77-1.34,3.23-3.6,1.49-6.2-.92-1.38-1.86-2.75-2.79-4.12-3.14-1-6.29-1.92-9.43-2.9-1.74-.55-3.48-1.13-4.45-2.88a2.55,2.55,0,0,1,.38-3.19c.78-.84,1.89-1.07,2.56-.09,2.79,4.13,8.23,4.89,11.09,8.88.64.18,1.28.34,1.92.54,1.89.6,4,1.87,5.69.5s.5-3.76.21-5.67c-.88-5.93-5.9-8.72-10.94-13.18,3.45,1.52,5.47,2.68,7.65,3.31,4,1.15,6.36-1,7.38-5.87.91-4.41-2.09-4.52-5-4.81-2.77-.28-5.54-.52-7.94-2.11,3.66.17,7.28,1.48,10.6-1.25,1.25-1,2.29-2,1.76-3.73-.63-2.06-2-5.49-3.13-5.18-4.93,1.28-8.58-2.44-13-2.52-2.07,0-4.36-.38-4.85,2.2-.46,2.41,1.6,3.41,3.51,4.16,3.48,1.37,6.91.35,10.32-.35,1.61-.33,3.26-1.25,4.52.57a2.55,2.55,0,0,1,.29,2.83,4.32,4.32,0,0,1-4.71,2.08c-2.31-.29-4.59-.85-6.91-1-1.52-.11-3.81-1.33-4.42.78-.7,2.42,2,2.55,3.51,3.33a26.06,26.06,0,0,0,9.11,2.46c1.54.19,3.63-.43,4.06,1.89a4.3,4.3,0,0,1-1.51,4c-1.47,1.29-3.06.76-4.68.08-3.3-1.39-5.84-3.77-8.44-6.13-1.45-1.32-3.24-2.07-4.77-.1-1.33,1.72-.41,3.07,1.09,4.21,2.64,2,5.16,4.2,7.87,6.11,3.27,2.3,5.7,5.11,6.44,9.12.17.93.32,2.23-.17,2.83-.94,1.17-2.3.2-3.08-.42-3.9-3.07-8.87-4.62-12.09-8.7-1.34-1.7-3.41-2.44-5.27-.77a4.57,4.57,0,0,0-1,6.28,8.72,8.72,0,0,0,5.24,3.58,53.58,53.58,0,0,1,7.1,2.32c2.73,1.28,6.24,3.63,4.67,6.53-1.82,3.36-5.47,1.58-8.26-.29-3.33-2.23-5.64-5.75-9.35-7.43-2.12-1-4.75-3.14-6.34.45-1.37,3.08-.85,6.06,2.92,7.2a102.33,102.33,0,0,0,10.17,2.47c2.77.54,5.06,1.65,6.51,4.13.86,1.47,1.55,3.1.1,4.6s-3.14,1-4.48-.15c-3.33-2.83-7.95-3.52-11-6.73a3.9,3.9,0,0,0-1.28-.76c-2.62-1.12-4.67,0-6,2.08-1.48,2.29.28,3.74,2,4.88,4.8,3.19,10.3,4.56,15.81,5.94,2.34.59,4.73,2,4.25,4.68-.42,2.3-3.08,2-5.08,2.07-4.34.07-8.64,0-12.84-1.42-2.07-.68-4.77-1.14-5.6,1.47s.57,4.82,3.27,5.94a44.32,44.32,0,0,0,15.55,3.31c1.33,0,3-.76,4.06,1a15.8,15.8,0,0,1-7.37,5.75c-3.92,1.69-6.81,4.11-5.59,8.6.87,3.22,5.67,2.86,10.51-.3,2.27-1.48,3.76-4.18,7.36-4.81a10.45,10.45,0,0,1-5,7c-4.35,2.9-4.08,7.41-4.09,11.64,0,2.81,2.08,3.17,4.23,1.78a21.27,21.27,0,0,0,6.56-6.73c1.7-2.73,3.13-5.81,6.28-7.45,1.16,1.65.51,3.14.33,4.54-3.81,30-13.8,58.53-21,87.71-4.8,19.49-12.44,38.3-17.49,57.79-2,7.56-3.59,14.69-11.84,17.77a4.06,4.06,0,0,0-1.14,1c-1.83,1.71-3.67,3.41-4,6.11s3.12,2.34,4.16,4.46c-3.08,1.13-6.1-.22-8.66,1.3-2.1,1.26-3.92,2.66-3.51,5.46.38,2.59,2.49,2.83,4.51,3,1.67.18,3.25.46,4.31,2.3-3.36,2.79-7,1-10.48.81-5.34-.31-8.55,2.35-8.94,7.66-.4,5.47,3.32,9.27,10.52,10.3,6.93,1,14,1.92,20.91,1.16,5-.55,9.88,2.72,14.16,1.13,5.94-2.21,12.26-2.8,18.08-5.23,2.85-1.19,5.11-3,4.88-6.2a7.67,7.67,0,0,0-5.19-7.19c-4-1.55-7.93-.65-12.41-.13,1.64-2.12,3.56-2.09,5.2-2.68a4.74,4.74,0,0,0,3.38-4.51,4.25,4.25,0,0,0-2.83-4.34c-3.22-.88-3.7-2-2.15-5.08,1.08-2.13-.95-3.93-3-4.29-3.41-.59-4.42-2.51-5.65-5.62-1.14-2.89-1.71-5.13-1.08-8.21,3.66-17.83,10.51-34.69,15.5-52.11a136.91,136.91,0,0,1,9.35-23.1c1.25-2.51,2.76-5,6-5.53,9.16-1.64,18.19-4.14,27.67-3.5a21.31,21.31,0,0,0,12.09-2.34C429.46,283.62,430,276.28,424,271.79ZM367.61,114.63c-2.36.43-3.82-1.25-4.17-3.3-.4-2.4,1.84-1.64,2.93-2.06,2.42.41,5.79.19,6.16,2.39S369.6,114.27,367.61,114.63ZM367.36,104c-1.54-.18-2.67-.94-2.59-2.42.11-2,1.93-1.64,3-1.32a25,25,0,0,0,9.12.85C374.05,103.05,371,104.39,367.36,104Zm-1.51,16.69c3.26-1.11,5.54-.61,7.74,1.06C371.21,122.52,368.83,123.46,365.85,120.66Zm-12.37,42.91a2.44,2.44,0,0,1-1.25-3.35c.72-1.7,2.14-1.26,3.36-.71a18.06,18.06,0,0,1,7,6.08A17.2,17.2,0,0,1,353.49,163.57Zm-2.72,11.37c-1.06-.47-2-1.45-1.14-2.79a2.25,2.25,0,0,1,3.1-.75c3.84,2.19,7.58,4.54,11.36,6.83C359,179.16,354.95,176.8,350.77,174.93Z"/></svg>