<svg width="250" height="184" viewBox="0 0 250 184" fill="none" xmlns="http://www.w3.org/2000/svg">
<path d="M6.02904 2C-4.68861 24.3555 6.96456 40.1731 29.2981 48.0533C42.215 52.6109 57.1964 41.7948 61.0286 28.8245C63.2407 21.3379 50.204 28.2266 48.4729 31.6986C41.6648 45.3531 47.0438 62.3195 63.2123 65.2976C86.2883 69.548 112.148 58.1654 122.988 37.1729C128.301 26.8862 125.694 22.1303 115.073 27.4559C98.534 35.7487 85.0004 50.3794 73.5161 64.5449C56.3481 85.721 36.7346 120.954 51.2024 148.303C64.5748 173.582 104.667 178.932 129.471 180.876C169.39 184.003 209.057 180.469 248 171.98" stroke="#B0DC33" stroke-width="3" stroke-linecap="round"/>
</svg>
