<svg width="1106" height="643" viewBox="0 0 1106 643" fill="none" xmlns="http://www.w3.org/2000/svg">
<path d="M1.55648 225.612C8.44168 232.033 17.5543 244.828 27.4687 245.802C38.3443 246.871 46.808 229.753 48.2044 221.221C49.6173 212.588 52.3851 204.013 55.4877 195.82C57.2381 191.197 60.6147 196.559 62.841 198.702C71.0578 206.612 76.6282 216.767 83.9433 225.436C91.1563 233.983 99.1956 241.547 107.357 249.158C119.626 260.599 128.944 237.465 130.901 228.388C138.577 192.794 135.88 154.817 151.138 120.97C157.286 107.33 171.922 82.0908 189.784 93.8146C218.641 112.755 217.897 150.163 225.837 179.998C232.823 206.248 243.196 229.052 264.091 246.871C269.796 251.737 275.399 239.896 276.822 235.99C282.69 219.892 280.576 202.152 281.469 185.376C283.401 149.101 284.598 107.038 310.422 78.6338C314.749 73.8735 319.65 67.7404 326.888 68.6522C337.854 70.0335 342.411 83.8346 344.906 92.5095C350.255 111.101 350.052 133.873 364.956 147.772C380.628 162.387 393.592 130.028 395.846 119.445C402.904 86.3013 408.009 54.4627 431.098 28.0161C438.441 19.6045 454.426 -2.09613 468.373 1.37108C481.422 4.61497 481.854 16.6002 484.668 28.8881C491.338 58.0053 492.258 88.7909 493.02 118.551C493.794 148.835 489.943 182.925 504.852 210.664C507.048 214.751 512.315 224.342 518.557 223.048C526.944 221.309 536.314 210.951 541.256 204.57C562.138 177.607 568.963 141.976 585.223 112.326C594.64 95.1526 612.369 69.8264 634.291 70.049C659.824 70.3082 690.999 91.4493 703.587 112.91C717.26 136.22 703.742 163.828 691.246 184.568C675.009 211.515 650.443 238.304 622.807 253.692C597.607 267.725 565.528 265.878 541.599 281.498C531.202 288.285 519.055 303.171 528.224 315.03C542.258 333.181 565.517 346.642 588.77 344.565C630.36 340.85 659.966 327.801 708.667 308.323C728.963 300.205 746.08 299.493 761.635 313.999C774.354 328.017 770.042 335.093 770.228 346.257C770.786 379.671 744.665 411.448 722.432 433.44C697.816 457.788 666.784 474.024 641.743 497.897C622.066 516.655 628.668 542.427 650.865 556.88C661.179 563.596 671.524 560.842 682.127 556.621C695.615 551.251 709.255 544.54 721.437 536.643C747.227 519.924 767.523 495.867 792.292 477.721C801.704 470.825 813.97 458.899 825.77 457.173C839.143 455.217 857.419 468.316 861.874 480.507C869.871 502.392 853.459 524.573 840.689 540.54C827.716 556.761 813.744 573.928 797.852 587.435C789.109 594.866 801.084 613.521 806.276 620.727C816.726 635.232 830.597 643.832 848.56 641.379C869.175 638.564 883.227 629.311 899.873 617.591C916.937 605.579 963.217 583.382 982.503 575.014C1007.19 564.303 1079.03 524.603 1104.58 523.719" stroke="#E1F500" stroke-width="2" stroke-linecap="round"/>
</svg>
